[Header]
FileType HTR
DataType HTRS
FileVersion 1
NumSegments 22
NumFrames 5
DataFrameRate 24
EulerRotationOrder ZYX
CalibrationUnits mm
RotationUnits Degrees
GlobalAxisofGravity Y
BoneLengthAxis Y
ScaleFactor 1.0
[SegmentNames&Hierarchy]
reference	GLOBAL
Hips	reference
Spine	Hips
Spine1	Spine
Neck	Spine1
Head	Neck
LeftShoulder	Spine1
LeftArm	LeftShoulder
LeftForeArm	LeftArm
LeftHand	LeftForeArm
RightShoulder	Spine1
RightArm	RightShoulder
RightForeArm	RightArm
RightHand	RightForeArm
LeftUpLeg	Hips
LeftLeg	LeftUpLeg
LeftFoot	LeftLeg
LeftToeBase	LeftFoot
RightUpLeg	Hips
RightLeg	RightUpLeg
RightFoot	RightLeg
RightToeBase	RightFoot
[BasePosition]
reference	0	0	0	0	0	0	1
Hips	0	0	0	0	0	0	1
Spine	0	0	0	0	-0	90	1
Spine1	0	0	0	0	0	0	1
Neck	0	0	0	-7.352327771	-7.352327771	90	1
Head	0	0	0	0	-0	90	1
LeftShoulder	0	0	0	0	0	0	1
LeftArm	0	0	0	0	0	0	1
LeftForeArm	0	0	0	0	0	0	1
LeftHand	0	0	0	0	0	0	1
RightShoulder	0	0	0	0	-0	180	1
RightArm	0	0	0	0	-0	180	1
RightForeArm	0	0	0	0	-0	180	1
RightHand	0	0	0	0	-0	180	1
LeftUpLeg	0	0	0	0	-0	-90	1
LeftLeg	0	0	0	0	-0	-90	1
LeftFoot	0	0	0	66.57146043	-66.57146043	-90	1
LeftToeBase	0	0	0	0	-90	0	1
RightUpLeg	0	0	0	0	-0	-90	1
RightLeg	0	0	0	0	-0	-90	1
RightFoot	0	0	0	66.57146043	-66.57146043	-90	1
RightToeBase	0	0	0	0	-90	0	1
[reference]
30	0	0	0	0	-0	0	1.0
31	0	0	0	0	-0	0	1.0
32	0	0	0	0	-0	0	1.0
33	0	0	0	0	-0	0	1.0
34	0	0	0	0	-0	0	1.0
[Hips]
30	7.390802383	8.573587418	1.51272583	229.9122162	-90.6696167	-225.0630951	1.0
31	7.13737011	8.548345566	1.443510771	357.9502563	-92.39321136	-353.6372681	1.0
32	6.906942844	8.477353096	1.380387068	356.3096619	-95.271698	-353.0082397	1.0
33	6.695973873	8.439864159	1.328068852	354.2082214	-98.5845108	-351.6529236	1.0
34	6.486954689	8.426036835	1.281205177	357.0474243	-102.0091934	-354.5044556	1.0
[Spine]
30	0	0.7457100153	0	-9.543686867	3.669346809	-89.11991882	1.0
31	0	0.7457100153	0	-8.712142944	3.975696087	-88.9800415	1.0
32	0	0.7457100153	0	-8.434431076	4.186581612	-88.3172226	1.0
33	0	0.7457100153	0	-8.160729408	4.143202305	-87.70568848	1.0
34	0	0.7457100153	0	-8.998920441	3.988730907	-87.80597687	1.0
[Spine1]
30	0	2.140589952	0	8.395799637	1.286365509	-0.9957174659	1.0
31	0	2.140589952	0	8.159668922	1.444661617	-0.8994638324	1.0
32	0	2.140589952	0	8.334116936	1.4378438	-0.8565607071	1.0
33	0	2.140589952	0	9.505670547	1.361826301	-0.418738395	1.0
34	0	2.140589952	0	11.68645859	1.282464027	0.02304636315	1.0
[Neck]
30	0	2.32246995	0	-15.735322	2.231420994	-90.59298706	1.0
31	0	2.32246995	0	-14.19615746	3.06004858	-91.2641449	1.0
32	0	2.32246995	0	-13.59029675	4.112550259	-91.97151184	1.0
33	0	2.32246995	0	-13.93461514	5.312129974	-92.34148407	1.0
34	0	2.32246995	0	-14.90034962	6.62620306	-92.35435486	1.0
[Head]
30	0	1.409579992	0.1818799973	0.6677747369	-5.175219059	-91.28418732	1.0
31	0	1.409579992	0.1818799973	-1.694240212	-4.323028564	-90.76778412	1.0
32	0	1.409579992	0.1818799973	-2.482323647	-3.214957714	-90.49755859	1.0
33	0	1.409579992	0.1818799973	-3.655071259	-1.908908248	-90.7755127	1.0
34	0	1.409579992	0.1818799973	-4.038908005	-0.4741034508	-91.29745483	1.0
[LeftShoulder]
30	0.3668199778	1.946700096	-0.02662999928	-10.85182571	-12.20052719	2.706749916	1.0
31	0.3668199778	1.946700096	-0.02662999928	-11.0514698	-12.19820404	0.9819223881	1.0
32	0.3668199778	1.946700096	-0.02662999928	-11.85802269	-12.00007248	-0.413833797	1.0
33	0.3668199778	1.946700096	-0.02662999928	-13.19036388	-12.00487328	-2.497253418	1.0
34	0.3668199778	1.946700096	-0.02662999928	-13.77237034	-12.44902992	-5.266849518	1.0
[LeftArm]
30	1.140689969	0	0	13.13402653	27.51294518	-65.6159668	1.0
31	1.140689969	0	0	15.39557076	26.11252403	-65.52526855	1.0
32	1.140689969	0	0	18.74527168	24.45163345	-66.4753418	1.0
33	1.140689969	0	0	24.36643791	22.48160744	-67.48696899	1.0
34	1.140689969	0	0	31.76498413	18.98582077	-68.23169708	1.0
[LeftForeArm]
30	2.749800205	0	0	-7.15009737	-1.139945626	-5.96280098	1.0
31	2.749800205	0	0	-8.038796425	-1.341497064	-5.390954494	1.0
32	2.749800205	0	0	-8.993619919	-2.425744295	-4.484104156	1.0
33	2.749800205	0	0	-11.47627926	-4.422643185	-2.976694345	1.0
34	2.749800205	0	0	-14.11027145	-6.111168861	-0.7911688685	1.0
[LeftHand]
30	2.295179844	0	0	-7.196418762	1.000570297	1.544799328	1.0
31	2.295179844	0	0	-8.05834198	2.171953917	2.302903652	1.0
32	2.295179844	0	0	-9.085771561	0.5266008377	0.6683154106	1.0
33	2.295179844	0	0	-11.58448124	0.4119059741	1.971435905	1.0
34	2.295179844	0	0	-14.15620422	-0.3983377218	1.193968058	1.0
[RightShoulder]
30	-0.3601199985	1.946700096	-0.02662999928	-8.410653114	2.954810619	173.3446655	1.0
31	-0.3601199985	1.946700096	-0.02662999928	-8.014814377	3.518356562	174.5105591	1.0
32	-0.3601199985	1.946700096	-0.02662999928	-7.565318108	4.309333324	175.4993591	1.0
33	-0.3601199985	1.946700096	-0.02662999928	-7.653058529	5.344039917	176.6997986	1.0
34	-0.3601199985	1.946700096	-0.02662999928	-8.045677185	5.784266472	176.819397	1.0
[RightArm]
30	-1.140689969	0	0	69.68334961	16.5626297	-96.91695404	1.0
31	-1.140689969	0	0	67.97817993	13.76430798	-96.99771881	1.0
32	-1.140689969	0	0	66.96552277	11.19427872	-97.16155243	1.0
33	-1.140689969	0	0	62.91479111	9.464344025	-98.3690033	1.0
34	-1.140689969	0	0	60.55397797	7.993943214	-98.15120697	1.0
[RightForeArm]
30	-2.749800205	0	0	2.471667767	27.42677307	170.1554565	1.0
31	-2.749800205	0	0	-0.6075235605	27.69142914	167.1355438	1.0
32	-2.749800205	0	0	-3.621896267	26.95343971	164.5044556	1.0
33	-2.749800205	0	0	-3.582762003	26.27031517	166.2962341	1.0
34	-2.749800205	0	0	-2.756420374	22.5137558	169.424881	1.0
[RightHand]
30	-2.295179844	0	0	3.841308832	11.11083221	169.3642731	1.0
31	-2.295179844	0	0	1.420912266	11.29111862	168.342804	1.0
32	-2.295179844	0	0	-1.134997606	11.61232185	167.8095245	1.0
33	-2.295179844	0	0	-1.722674847	12.09282684	167.2172089	1.0
34	-2.295179844	0	0	-2.055469513	11.57185936	166.0749664	1.0
[LeftUpLeg]
30	0.9094099998	0	0	3.766637325	5.621608734	90.35375977	1.0
31	0.9094099998	0	0	-1.133411288	5.591338158	92.26036072	1.0
32	0.9094099998	0	0	-7.515268803	3.646744967	94.21168518	1.0
33	0.9094099998	0	0	-13.53532124	3.547882557	95.7783432	1.0
34	0.9094099998	0	0	-18.60041618	2.060869217	96.22434235	1.0
[LeftLeg]
30	0	-4.498080254	0	27.27352524	-3.336543083	86.18112183	1.0
31	0	-4.498080254	0	42.28578568	-0.4227585793	83.53594971	1.0
32	0	-4.498080254	0	56.96025467	2.686916828	79.45544434	1.0
33	0	-4.498080254	0	67.91714478	1.32348299	68.04587555	1.0
34	0	-4.498080254	0	72.02793884	3.437509775	64.91435242	1.0
[LeftFoot]
30	0	-3.729400158	0	-93.61907196	96.69719696	-50.2776947	1.0
31	0	-3.729400158	0	-89.12238312	97.82571411	-52.39353943	1.0
32	0	-3.729400158	0	-72.48452759	100.0491943	-42.27799225	1.0
33	0	-3.729400158	0	-44.29507446	109.6335907	-13.96116638	1.0
34	0	-3.729400158	0	-41.06247711	113.5768051	-6.754219055	1.0
[LeftToeBase]
30	0	-0.5911099911	1.364109993	0	0	0	1.0
31	0	-0.5911099911	1.364109993	0	0	0	1.0
32	0	-0.5911099911	1.364109993	0	0	0	1.0
33	0	-0.5911099911	1.364109993	0	0	0	1.0
34	0	-0.5911099911	1.364109993	0	0	0	1.0
[RightUpLeg]
30	-0.9094099998	0	0	-19.80595398	-7.904304504	97.63150024	1.0
31	-0.9094099998	0	0	-18.69185448	-4.75155735	97.02293396	1.0
32	-0.9094099998	0	0	-18.70606804	-4.287143707	97.50245667	1.0
33	-0.9094099998	0	0	-18.38996696	-4.775399208	98.83629608	1.0
34	-0.9094099998	0	0	-17.57859802	-2.956564188	98.65641785	1.0
[RightLeg]
30	0	-4.498080254	0	20.11167908	-6.689506054	83.24474335	1.0
31	0	-4.498080254	0	23.88697624	-6.141881466	83.63052368	1.0
32	0	-4.498080254	0	28.47057152	-1.562896729	85.45469666	1.0
33	0	-4.498080254	0	32.20986176	0.7310718298	85.27721405	1.0
34	0	-4.498080254	0	33.89257813	2.945747375	86.71038055	1.0
[RightFoot]
30	0	-3.729400158	0	62.92865372	72.95592499	99.79608154	1.0
31	0	-3.729400158	0	59.61466217	72.75247955	98.84497833	1.0
32	0	-3.729400158	0	48.72249603	72.22267151	90.40150452	1.0
33	0	-3.729400158	0	46.02180862	73.03892517	91.62407684	1.0
34	0	-3.729400158	0	39.59803391	71.88519287	86.32537079	1.0
[RightToeBase]
30	0	-0.5911099911	1.364109993	0	0	0	1.0
31	0	-0.5911099911	1.364109993	0	0	0	1.0
32	0	-0.5911099911	1.364109993	0	0	0	1.0
33	0	-0.5911099911	1.364109993	0	0	0	1.0
34	0	-0.5911099911	1.364109993	0	0	0	1.0
[EndOfFile]
